# xmcd CD database file
#
# Track frame offsets:
#	187
#	10327
#	21220
#	36307
#	49872
#	63122
#	75172
#	84702
#	96392
#	109437
#	121695
#	139517
#	148712
#	171995
#
# Disc length: 2454 seconds
#
# Revision: 1
# Processed by: cddbd v1.5.2PL0 Copyright (c) Steve Scherf et al.
# Submitted via: CDex 1.70beta2
#
DISCID=b709940e
DTITLE=The Beatles - The Early Tapes of The Beatles
DYEAR=1965
DGENRE=Rock
TTITLE0=Ain't She Sweet
TTITLE1=Cry For A Shadow
TTITLE2=When The Saints Go Marching In
TTITLE3=Why
TTITLE4=If You Love Me, Baby
TTITLE5=What'd I Say
TTITLE6=Sweet Georgia Brown
TTITLE7=Let's Dance
TTITLE8=Ruby Baby
TTITLE9=My Bonnie
TTITLE10=Nobody's Child
TTITLE11=Ready Teddy
TTITLE12=Ya Ya (Parts 1 +2)
TTITLE13=Kansas City
EXTD=YEAR: 1965
EXTT0=
EXTT1=
EXTT2=
EXTT3=
EXTT4=
EXTT5=
EXTT6=
EXTT7=
EXTT8=
EXTT9=
EXTT10=
EXTT11=
EXTT12=
EXTT13=
PLAYORDER=
